<svg viewBox="0 0 24 24" fill="none" xmlns="http://www.w3.org/2000/svg">
<path opacity="0.1" fill-rule="evenodd" clip-rule="evenodd" d="M7.71394 5.1753C8.68723 5.62451 9.84336 5.1775 10.2557 4.18801C10.902 2.63687 13.0994 2.63687 13.7457 4.18801C14.158 5.1775 15.3141 5.62451 16.2874 5.1753C17.8978 4.43205 19.5686 6.10283 18.8253 7.71321C18.3761 8.68649 18.8231 9.84263 19.8126 10.2549C21.3637 10.9012 21.3637 13.0987 19.8126 13.745C18.8231 14.1573 18.3761 15.3134 18.8253 16.2867C19.5686 17.8971 17.8978 19.5678 16.2874 18.8246C15.3141 18.3754 14.158 18.8224 13.7457 19.8119C13.0994 21.363 10.902 21.363 10.2557 19.8119C9.84336 18.8224 8.68723 18.3754 7.71394 18.8246C6.10356 19.5678 4.43278 17.8971 5.17603 16.2867C5.62524 15.3134 5.17823 14.1573 4.18874 13.745C2.63761 13.0987 2.63761 10.9012 4.18874 10.2549C5.17823 9.84263 5.62524 8.68649 5.17603 7.71321C4.43278 6.10283 6.10356 4.43205 7.71394 5.1753ZM12.0007 8.74994C10.2058 8.74994 8.75068 10.205 8.75068 11.9999C8.75068 13.7949 10.2058 15.2499 12.0007 15.2499C13.7956 15.2499 15.2507 13.7949 15.2507 11.9999C15.2507 10.205 13.7956 8.74994 12.0007 8.74994Z" fill="currentColor"/>
<path d="M10.255 4.18806C9.84269 5.17755 8.68655 5.62456 7.71327 5.17535C6.10289 4.4321 4.4321 6.10289 5.17535 7.71327C5.62456 8.68655 5.17755 9.84269 4.18806 10.255C2.63693 10.9013 2.63693 13.0987 4.18806 13.745C5.17755 14.1573 5.62456 15.3135 5.17535 16.2867C4.4321 17.8971 6.10289 19.5679 7.71327 18.8246C8.68655 18.3754 9.84269 18.8224 10.255 19.8119C10.9013 21.3631 13.0987 21.3631 13.745 19.8119C14.1573 18.8224 15.3135 18.3754 16.2867 18.8246C17.8971 19.5679 19.5679 17.8971 18.8246 16.2867C18.3754 15.3135 18.8224 14.1573 19.8119 13.745C21.3631 13.0987 21.3631 10.9013 19.8119 10.255C18.8224 9.84269 18.3754 8.68655 18.8246 7.71327C19.5679 6.10289 17.8971 4.4321 16.2867 5.17535C15.3135 5.62456 14.1573 5.17755 13.745 4.18806C13.0987 2.63693 10.9013 2.63693 10.255 4.18806Z" stroke="currentColor" stroke-width="2" stroke-linecap="round" stroke-linejoin="round"/>
<path d="M15 12C15 13.6569 13.6569 15 12 15C10.3431 15 9 13.6569 9 12C9 10.3431 10.3431 9 12 9C13.6569 9 15 10.3431 15 12Z" stroke="currentColor" stroke-width="2"/>
</svg>
