<svg viewBox="0 0 24 24" fill="none" xmlns="http://www.w3.org/2000/svg">
<path opacity="0.1" d="M19.9813 10.2399L12.9418 13.9973C12.3532 14.3115 11.6468 14.3115 11.0582 13.9973L4.0187 10.2399C3.57478 10.003 3.56424 9.3704 4.00002 9.1188L11.0845 5.47134C11.659 5.17556 12.341 5.17556 12.9155 5.47134L20 9.1188C20.4358 9.3704 20.4252 10.003 19.9813 10.2399Z" fill="currentColor"/>
<path d="M19.9813 10.2399L12.9418 13.9973C12.3532 14.3115 11.6468 14.3115 11.0582 13.9973L4.0187 10.2399C3.57478 10.003 3.56424 9.3704 4.00002 9.1188L11.0845 5.47134C11.659 5.17556 12.341 5.17556 12.9155 5.47134L20 9.1188C20.4358 9.3704 20.4252 10.003 19.9813 10.2399Z" stroke="currentColor" stroke-width="2" stroke-linecap="round"/>
<path d="M21 13C21 13.6156 20.6609 14.181 20.1178 14.4709L12.9418 18.3012C12.3532 18.6153 11.6468 18.6153 11.0582 18.3012L3.8822 14.4709C3.33916 14.181 3 13.6156 3 13" stroke="currentColor" stroke-width="2" stroke-linecap="round"/>
</svg>
