<svg xmlns="http://www.w3.org/2000/svg" viewBox="0 0 200 200" fill="none" stroke="currentColor" stroke-width="5" stroke-linecap="round" stroke-linejoin="round">
  <path d="M100 20 C58 20 40 55 40 82 C40 108 55 125 60 136 C65 147 65 155 65 160 L135 160 C135 155 135 147 140 136 C145 125 160 108 160 82 C160 55 142 20 100 20 Z"/>
  <line x1="80" y1="160" x2="120" y2="160"/>
  <line x1="85" y1="172" x2="115" y2="172"/>
  <line x1="90" y1="183" x2="110" y2="183"/>
  <line x1="62" y1="105" x2="138" y2="105"/>
  <line x1="100" y1="105" x2="100" y2="140"/>
</svg>
