<svg viewBox="0 0 24 24" fill="none" xmlns="http://www.w3.org/2000/svg">
<path opacity="0.1" d="M3.09097 6.41724C3 6.76065 3 7.21501 3 7.99991V15.9999C3 16.9318 3 17.3977 3.15224 17.7653C3.35523 18.2553 3.74458 18.6447 4.23463 18.8477C4.60218 18.9999 5.06812 18.9999 6 18.9999H18C18.9319 18.9999 19.3978 18.9999 19.7654 18.8477C20.2554 18.6447 20.6448 18.2553 20.8478 17.7653C21 17.3977 21 16.9318 21 15.9999V7.99991C21 7.215 21 6.76066 20.909 6.41724C20.852 6.54174 20.7683 6.65646 20.6585 6.75249L13.9755 12.6001C12.8444 13.5898 11.1556 13.5898 10.0245 12.6001L3.3415 6.75249C3.23175 6.65646 3.14804 6.54174 3.09097 6.41724Z" fill="currentColor"/>
<path d="M3 8C3 7.06812 3 6.60218 3.15224 6.23463C3.35523 5.74458 3.74458 5.35523 4.23463 5.15224C4.60218 5 5.06812 5 6 5H18C18.9319 5 19.3978 5 19.7654 5.15224C20.2554 5.35523 20.6448 5.74458 20.8478 6.23463C21 6.60218 21 7.06812 21 8V16C21 16.9319 21 17.3978 20.8478 17.7654C20.6448 18.2554 20.2554 18.6448 19.7654 18.8478C19.3978 19 18.9319 19 18 19H6C5.06812 19 4.60218 19 4.23463 18.8478C3.74458 18.6448 3.35523 18.2554 3.15224 17.7654C3 17.3978 3 16.9319 3 16V8Z" stroke="currentColor" stroke-width="2" stroke-linejoin="round"/>
<path d="M4 6L10.683 11.8476C11.437 12.5074 12.563 12.5074 13.317 11.8476L20 6" stroke="currentColor" stroke-width="2" stroke-linecap="round" stroke-linejoin="round"/>
</svg>
